<svg width="24" height="24" viewBox="0 0 24 24" fill="none" xmlns="http://www.w3.org/2000/svg">
<path fill-rule="evenodd" clip-rule="evenodd" d="M12 4.25C17.105 4.25 21.25 8.395 21.25 13.5C21.25 18.605 17.105 22.75 12 22.75C6.895 22.75 2.75 18.605 2.75 13.5C2.75 8.395 6.895 4.25 12 4.25ZM16.545 17.712C15.406 16.504 13.79 15.75 12 15.75C10.21 15.75 8.594 16.504 7.455 17.712C7.17 18.013 7.184 18.488 7.485 18.772C7.786 19.056 8.261 19.042 8.545 18.741C9.412 17.823 10.639 17.25 12 17.25C13.361 17.25 14.588 17.823 15.455 18.741C15.739 19.042 16.214 19.056 16.515 18.772C16.816 18.488 16.83 18.013 16.545 17.712ZM18.1 11.8C17.62 11.162 16.858 10.75 16 10.75C15.142 10.75 14.38 11.162 13.9 11.8C13.652 12.13 13.718 12.601 14.049 12.85C14.38 13.098 14.851 13.032 15.1 12.701C15.305 12.427 15.632 12.25 16 12.25C16.368 12.25 16.695 12.427 16.9 12.701C17.149 13.032 17.62 13.098 17.951 12.85C18.282 12.601 18.348 12.13 18.1 11.8ZM10.1 11.8C9.62 11.162 8.858 10.75 8 10.75C7.142 10.75 6.38 11.162 5.9 11.8C5.652 12.13 5.718 12.601 6.049 12.85C6.38 13.098 6.851 13.032 7.1 12.701C7.305 12.427 7.632 12.25 8 12.25C8.368 12.25 8.695 12.427 8.9 12.701C9.149 13.032 9.62 13.098 9.951 12.85C10.282 12.601 10.348 12.13 10.1 11.8Z" fill="#0D1101"/>
<path fill-rule="evenodd" clip-rule="evenodd" d="M21.25 5C21.25 4.586 21.586 4.25 22 4.25C22.414 4.25 22.75 4.586 22.75 5V8C22.75 8.414 22.414 8.75 22 8.75C21.586 8.75 21.25 8.414 21.25 8V5Z" fill="#0D1101"/>
<path fill-rule="evenodd" clip-rule="evenodd" d="M1.25 5C1.25 4.586 1.586 4.25 2 4.25C2.414 4.25 2.75 4.586 2.75 5V8C2.75 8.414 2.414 8.75 2 8.75C1.586 8.75 1.25 8.414 1.25 8V5Z" fill="#0D1101"/>
<path fill-rule="evenodd" clip-rule="evenodd" d="M18.25 2C18.25 1.586 18.586 1.25 19 1.25C19.414 1.25 19.75 1.586 19.75 2V5C19.75 5.414 19.414 5.75 19 5.75C18.586 5.75 18.25 5.414 18.25 5V2Z" fill="#0D1101"/>
<path fill-rule="evenodd" clip-rule="evenodd" d="M4.25 2C4.25 1.586 4.586 1.25 5 1.25C5.414 1.25 5.75 1.586 5.75 2V5C5.75 5.414 5.414 5.75 5 5.75C4.586 5.75 4.25 5.414 4.25 5V2Z" fill="#0D1101"/>
</svg>
