<svg width="24" height="24" viewBox="0 0 24 24" fill="none" xmlns="http://www.w3.org/2000/svg">
<g clip-path="url(#clip0_1_1178)">
<path d="M7.32325 9.15395C10.0563 8.24699 12.502 8.70921 12.502 8.70921L12.5104 9.42156C12.5225 10.5726 12.8373 10.6775 12.8373 10.6775C13.5815 11.2591 14.2566 10.6372 14.2566 10.6372C14.2566 10.6372 19.0173 7.13248 19.1419 7.04049C19.2666 6.94774 20.0033 6.49083 20.0056 5.2927C20.0063 4.09304 18.9944 3.52134 18.9944 3.52134C18.9944 3.52134 15.064 0.845295 14.2718 0.306286C13.4782 -0.233484 13.0334 0.103302 13.0334 0.103302C12.4495 0.484942 12.5028 0.98518 12.5028 0.98518V2.38402C8.08577 3.29099 4.9954 5.97387 4.9954 5.97387C0.747943 9.58577 1.91719 14.6049 1.91719 14.6049C1.91719 14.6049 1.92783 14.8299 2.35813 14.8299C2.84696 14.8299 2.85229 14.5288 2.85229 14.5288C3.05451 12.8198 4.59019 10.0609 7.32325 9.15395Z" fill="#0D1101"/>
<path d="M22.0795 9.3927C22.0795 9.3927 22.0681 9.16919 21.6401 9.16919C21.149 9.16919 21.1459 9.47024 21.1459 9.47024C20.9422 11.1785 19.408 13.9367 16.6742 14.8451C13.9396 15.7513 11.4954 15.2891 11.4954 15.2891L11.4871 14.5768C11.4757 13.4227 11.1617 13.3209 11.1617 13.3209C10.4174 12.7385 9.7408 13.3612 9.7408 13.3612C9.7408 13.3612 4.98094 16.8666 4.85626 16.9586C4.73082 17.0506 3.99719 17.5075 3.99415 18.7072C3.99111 19.9045 5.00299 20.4778 5.00299 20.4778C5.00299 20.4778 8.9319 23.153 9.72483 23.6928C10.5178 24.2333 10.964 23.8973 10.964 23.8973C11.5471 23.5141 11.4947 23.0177 11.4947 23.0177V21.6166C15.9124 20.7111 19.002 18.0252 19.002 18.0252C23.2495 14.4126 22.0795 9.3927 22.0795 9.3927Z" fill="#0D1101"/>
</g>
<defs>
<clipPath id="clip0_1_1178">
<rect width="24" height="24" fill="white"/>
</clipPath>
</defs>
</svg>
