<svg width="18" height="18" viewBox="0 0 18 18" fill="none" xmlns="http://www.w3.org/2000/svg">
<path d="M12.201 4.34811V1.62842C12.201 1.31904 11.9479 1.06592 11.6385 1.06592H6.06692C5.75755 1.06592 5.50442 1.31904 5.50442 1.62842V4.34811C3.47942 5.50967 2.11255 7.69498 2.11255 10.1953C2.11255 13.9106 5.13599 16.934 8.85411 16.934C9.11005 16.934 9.32942 16.7597 9.39411 16.5206C9.40255 16.4869 9.41099 16.4531 9.4138 16.4165C9.41661 16.3997 9.41661 16.38 9.41661 16.3603V14.8584C9.41661 14.549 9.16349 14.2959 8.85411 14.2959C8.54192 14.2959 8.29161 14.549 8.29161 14.8584V15.7809C7.32411 15.6853 6.42692 15.3394 5.66474 14.8134L6.40724 14.0709C6.62661 13.8515 6.62661 13.4944 6.40724 13.275C6.18786 13.0556 5.83067 13.0556 5.6113 13.275L4.80692 14.0794C3.97161 13.2131 3.41474 12.0825 3.27411 10.8281H4.53974C4.85192 10.8281 5.10224 10.575 5.10224 10.2656C5.10224 9.95623 4.85192 9.7031 4.53974 9.7031H3.26005C3.35286 8.63436 3.7438 7.65279 4.3513 6.83998L5.33005 7.81873C5.43974 7.92842 5.58317 7.98467 5.72661 7.98467C5.87005 7.98467 6.0163 7.92842 6.12599 7.81873C6.34536 7.59936 6.34536 7.24217 6.12599 7.02279L5.11349 6.01311C5.97411 5.23686 7.07942 4.72779 8.29161 4.60686V5.67279C8.29161 5.98217 8.54192 6.23529 8.85411 6.23529C9.16349 6.23529 9.41661 5.98217 9.41661 5.67279V4.60686C10.6288 4.72779 11.7313 5.23686 12.5919 6.01311L11.5822 7.02279C11.3629 7.24217 11.3629 7.59936 11.5822 7.81873C11.6919 7.92842 11.8354 7.98467 11.9788 7.98467C12.1222 7.98467 12.2657 7.92842 12.3754 7.81873L13.3541 6.84279C14.0544 7.77936 14.4679 8.93811 14.4679 10.1953C14.4679 10.5047 14.7182 10.7578 15.0304 10.7578C15.3397 10.7578 15.5929 10.5047 15.5929 10.1953C15.5929 7.69498 14.226 5.50967 12.201 4.34811ZM11.076 3.83342C10.3785 3.58592 9.63036 3.45373 8.85411 3.45373C8.07505 3.45373 7.32692 3.58592 6.62942 3.83342V2.19092H11.076V3.83342Z" fill="#0D1101"/>
<path d="M10.1552 10.9296C10.1552 11.2896 10.0681 11.6074 9.89087 11.8746C9.66868 12.2177 9.35931 12.3921 8.96837 12.3921C8.65056 12.3921 8.38619 12.2796 8.18369 12.0602C7.984 11.8493 7.8715 11.568 7.84337 11.2249C7.83775 11.1405 7.89962 11.0674 7.984 11.0561L8.37212 11.0168C8.45931 11.0083 8.53244 11.0674 8.54087 11.1518C8.56619 11.3486 8.61962 11.4949 8.704 11.5877C8.77994 11.6721 8.86431 11.7114 8.96837 11.7114C9.09775 11.7114 9.20462 11.6524 9.29744 11.5258C9.4015 11.3908 9.45212 11.2024 9.45212 10.9689C9.45212 10.7496 9.40431 10.5752 9.30868 10.4571C9.21868 10.3446 9.109 10.2911 8.96275 10.2911C8.87556 10.2911 8.79681 10.3164 8.7265 10.3643C8.65056 10.4149 8.59431 10.4824 8.54931 10.5639C8.51837 10.623 8.45369 10.6568 8.389 10.6455L8.04025 10.5893C7.95587 10.578 7.89681 10.4993 7.91087 10.4149L8.20337 8.5277C8.21462 8.45176 8.27931 8.39551 8.35806 8.39551H9.85994C9.94431 8.39551 10.0146 8.46582 10.0146 8.5502V8.98332C10.0146 9.0677 9.94431 9.13801 9.85994 9.13801H8.78556L8.69837 9.65832C8.8165 9.6077 8.93744 9.58238 9.06119 9.58238C9.37337 9.58238 9.63775 9.71457 9.84869 9.97332C10.054 10.2236 10.1552 10.5443 10.1552 10.9296Z" fill="#0D1101"/>
<path d="M13.4166 13.3285V14.5323C13.4166 14.6082 13.3519 14.6729 13.276 14.6729H12.9807C12.9019 14.6729 12.84 14.6082 12.84 14.5323V13.4298C12.84 13.292 12.826 13.2385 12.8203 13.2217C12.8119 13.1992 12.795 13.1795 12.7725 13.1654C12.7444 13.1485 12.7107 13.1401 12.6685 13.1401C12.5841 13.1401 12.5166 13.1654 12.4632 13.2217C12.4097 13.2751 12.3816 13.3763 12.3816 13.5142V14.5323C12.3816 14.6082 12.3169 14.6729 12.241 14.6729H11.9428C11.8669 14.6729 11.8022 14.6082 11.8022 14.5323V13.3932C11.8022 13.2695 11.7797 13.2076 11.7572 13.1795C11.7516 13.171 11.7263 13.1401 11.6335 13.1401C11.5772 13.1401 11.5266 13.1542 11.476 13.1851C11.4338 13.2104 11.4 13.2526 11.3803 13.306C11.3635 13.3538 11.341 13.4467 11.341 13.6238V14.5323C11.341 14.6082 11.2791 14.6729 11.2003 14.6729H10.905C10.8263 14.6729 10.7644 14.6082 10.7644 14.5323V12.7801C10.7644 12.7042 10.8263 12.6395 10.905 12.6395H11.1694C11.2228 12.6395 11.2678 12.6704 11.2932 12.7126C11.3016 12.707 11.31 12.7042 11.3185 12.6985C11.5575 12.5607 11.895 12.5748 12.0947 12.7042C12.1397 12.7323 12.1791 12.7688 12.2157 12.8054C12.3591 12.6704 12.5335 12.6001 12.736 12.6001C12.9469 12.6001 13.1157 12.6648 13.2366 12.7885C13.3547 12.9095 13.4166 13.0923 13.4166 13.3285Z" fill="#0D1101"/>
<path d="M14.1535 12.7798V14.532C14.1535 14.6079 14.0916 14.6726 14.0128 14.6726H13.7175C13.6388 14.6726 13.5769 14.6079 13.5769 14.532V12.7798C13.5769 12.7038 13.6388 12.6392 13.7175 12.6392H14.0128C14.0916 12.6392 14.1535 12.7038 14.1535 12.7798Z" fill="#0D1101"/>
<path d="M14.1535 12.1162V12.4565C14.1535 12.5353 14.0916 12.5971 14.0128 12.5971H13.7175C13.6388 12.5971 13.5769 12.5353 13.5769 12.4565V12.1162C13.5769 12.0375 13.6388 11.9756 13.7175 11.9756H14.0128C14.0916 11.9756 14.1535 12.0375 14.1535 12.1162Z" fill="#0D1101"/>
<path d="M16.0303 13.455V14.5322C16.0303 14.6082 15.9656 14.6728 15.8897 14.6728H15.5916C15.5128 14.6728 15.4509 14.6082 15.4509 14.5322V13.4663C15.4509 13.3313 15.4341 13.2694 15.4256 13.2469C15.4144 13.216 15.3947 13.1907 15.3609 13.171C15.2625 13.1119 15.0966 13.1344 14.9925 13.2244C14.9362 13.275 14.9025 13.3988 14.9025 13.576V14.5322C14.9025 14.6082 14.8406 14.6728 14.7619 14.6728H14.4666C14.3878 14.6728 14.3259 14.6082 14.3259 14.5322V12.78C14.3259 12.7041 14.3878 12.6394 14.4666 12.6394H14.7337C14.7872 12.6394 14.8322 12.6703 14.8575 12.7153C15.0712 12.5832 15.3891 12.5635 15.6366 12.6703C15.7491 12.7182 15.8362 12.7828 15.8953 12.8644C15.9487 12.9432 15.9881 13.0332 16.0106 13.1372C16.0219 13.2047 16.0303 13.306 16.0303 13.455Z" fill="#0D1101"/>
</svg>
