<svg width="24" height="24" viewBox="0 0 24 24" fill="none" xmlns="http://www.w3.org/2000/svg">
<path d="M12 1.10921C13.6499 1.10922 15.1898 1.4381 16.6197 2.09481L14.9697 3.73657V3.84578C13.9798 3.5175 12.9899 3.29883 12 3.29883C7.16008 3.29883 3.19972 7.23878 3.19964 12.0546C3.19964 16.8705 7.16004 20.8113 12 20.8113C16.84 20.8113 20.7995 16.8705 20.7995 12.0546C20.7994 10.9602 20.5795 9.97519 20.3595 9.09961L22.0095 7.56706C22.6695 8.88045 23 10.4129 23 12.0546C23 18.0745 18.0499 23 12 23C5.95004 23 1 18.0745 1 12.0546C1.00008 6.03475 5.95009 1.10921 12 1.10921ZM11.9964 5.48755C12.9864 5.48755 13.8666 5.70614 14.7466 6.03451V6.14461L13.0967 7.78638C12.7667 7.78638 12.4364 7.67627 11.9964 7.67627C9.57651 7.67633 7.59628 9.64673 7.59622 12.0546C7.59622 14.4626 9.57645 16.4329 11.9964 16.4329C14.4164 16.4329 16.3966 14.4626 16.3966 12.0546C16.3966 11.7263 16.3968 11.2881 16.2868 10.9598L17.8261 9.31803H17.9368C18.3768 10.1936 18.5962 11.0696 18.5962 12.0546C18.5962 15.6666 15.6264 18.6217 11.9964 18.6217C8.36648 18.6216 5.39658 15.6665 5.39658 12.0546C5.39664 8.44274 8.36652 5.48761 11.9964 5.48755ZM19.0326 3.955L20.0231 4.94059H22.9928L19.8026 8.11401L17.2728 8.33333L14.0827 11.5077C14.1926 11.7264 14.1924 11.8358 14.1924 12.0546C14.1924 13.2586 13.2028 14.2442 11.9928 14.2442C10.7828 14.2442 9.79316 13.2586 9.79316 12.0546C9.79324 10.8507 10.7829 9.86589 11.9928 9.86589H12.5425L15.7326 6.69157L15.9531 4.17432L19.0326 1V3.955Z" fill="#0D1101"/>
</svg>
