<svg width="18" height="18" viewBox="0 0 18 18" fill="none" xmlns="http://www.w3.org/2000/svg">
<path d="M9 5.90625C10.0873 5.90625 10.9688 5.02481 10.9688 3.9375C10.9688 2.85019 10.0873 1.96875 9 1.96875C7.91269 1.96875 7.03125 2.85019 7.03125 3.9375C7.03125 5.02481 7.91269 5.90625 9 5.90625Z" fill="#0D1101"/>
<path d="M14.8444 11.6353C14.5941 11.0447 13.6687 10.8338 12.375 11.0503V9C12.375 8.25408 12.0787 7.53871 11.5512 7.01126C11.0238 6.48382 10.3084 6.1875 9.5625 6.1875H8.4375C7.69158 6.1875 6.97621 6.48382 6.44876 7.01126C5.92132 7.53871 5.625 8.25408 5.625 9V11.0531C4.33125 10.8337 3.40594 11.0531 3.15563 11.6353C3.10975 11.7541 3.08883 11.8811 3.09415 12.0084C3.09947 12.1356 3.13093 12.2604 3.18656 12.375C3.25868 12.5366 3.35338 12.6872 3.46781 12.8222C0.84375 13.3116 0.84375 13.9753 0.84375 14.2031C0.84375 15.6488 6.1875 16.0312 9 16.0312C11.8125 16.0312 17.1562 15.6488 17.1562 14.2031C17.1562 13.9753 17.1562 13.3116 14.535 12.8194C14.6494 12.6844 14.7441 12.5338 14.8162 12.3722C14.871 12.2578 14.9018 12.1334 14.9066 12.0067C14.9115 11.8799 14.8903 11.7535 14.8444 11.6353ZM6.35063 14.0259C4.82625 13.4325 3.90937 12.6394 3.70406 12.1528C3.67925 12.1077 3.66373 12.0581 3.65842 12.0069C3.6531 11.9557 3.65811 11.9039 3.67313 11.8547C3.80531 11.5453 4.66031 11.3878 5.99062 11.7L7.78781 13.3003C7.95398 13.4474 8.16688 13.531 8.38876 13.5361C8.61065 13.5413 8.82719 13.4677 9 13.3284C9.25076 13.5903 9.47936 13.8725 9.68344 14.1722C9.045 14.3184 7.64156 14.5266 6.35063 14.0259ZM9.32625 12.8644C9.32526 12.8597 9.32526 12.8549 9.32625 12.8503C9.34888 12.7698 9.36024 12.6865 9.36 12.6028C9.35887 12.5191 9.34657 12.4358 9.32344 12.3553L10.9237 10.2966C10.9569 10.2457 10.9726 10.1855 10.9688 10.125V9H10.4062V10.0294L9 11.835L7.59375 10.0294V9H7.03125V10.125C7.03144 10.1871 7.05221 10.2475 7.09031 10.2966L8.71875 12.375C8.7343 12.395 8.74751 12.4167 8.75812 12.4397C8.78304 12.4915 8.79648 12.5481 8.7975 12.6056C8.79816 12.6612 8.78563 12.7161 8.76094 12.7659C8.74313 12.804 8.71832 12.8383 8.68781 12.8672C8.61879 12.9329 8.52716 12.9695 8.43187 12.9695C8.33659 12.9695 8.24496 12.9329 8.17594 12.8672L6.20719 11.1122V9C6.20719 8.40326 6.44424 7.83097 6.8662 7.40901C7.28815 6.98705 7.86045 6.75 8.45719 6.75H9.58219C10.1789 6.75 10.7512 6.98705 11.1732 7.40901C11.5951 7.83097 11.8322 8.40326 11.8322 9V11.1234L9.86344 12.8784C9.79003 12.9472 9.6925 12.9843 9.59196 12.9816C9.49142 12.979 9.39596 12.9369 9.32625 12.8644ZM14.2959 12.1528C14.0906 12.6394 13.1709 13.4325 11.6494 14.0259C11.2463 14.1741 10.8255 14.2687 10.3978 14.3072C10.3967 14.2747 10.3881 14.2429 10.3725 14.2144C10.2267 13.9635 10.0612 13.7246 9.8775 13.5C9.99959 13.4613 10.1125 13.3982 10.2094 13.3144L12.0122 11.7141C13.3397 11.4019 14.1947 11.5594 14.3269 11.8688C14.3534 11.9639 14.3423 12.0656 14.2959 12.1528Z" fill="#0D1101"/>
</svg>
