<svg width="18" height="18" viewBox="0 0 18 18" fill="none" xmlns="http://www.w3.org/2000/svg">
<path d="M16.4797 16.5226C15.561 16.2507 14.5504 15.8213 14.4697 15.4295C14.3891 15.0413 15.1129 13.412 15.6941 12.1032C16.0391 11.327 16.3654 10.5938 16.5266 10.127C16.7704 9.41821 16.581 8.97383 16.3804 8.72633C16.0972 8.37946 15.636 8.23883 15.3285 8.28008C14.9441 8.32883 14.6029 8.45071 13.9822 8.66821C13.7535 8.75071 13.4835 8.84446 13.1591 8.95508C12.6472 9.12946 12.0041 9.48758 11.4304 9.84196C11.5016 7.48321 11.1772 7.06133 10.8341 6.61508C10.671 6.40321 10.5022 6.18383 10.3691 5.72633C10.0035 4.47758 9.22911 4.23383 8.54661 4.01821C8.39661 3.97133 8.25599 3.92633 8.11724 3.87196C7.44599 3.61133 6.98661 3.60758 6.83099 3.61508C5.56724 2.45258 3.85536 0.990081 3.11099 0.875706C2.16786 0.729456 2.07224 1.12508 1.92599 1.72508C1.89411 1.85446 1.86036 1.99883 1.81349 2.15446C1.65224 2.69071 1.65974 3.74633 1.66724 4.51883C1.66911 4.90133 1.67286 5.33446 1.64474 5.43383C1.50974 5.53508 1.23411 5.96446 1.29974 6.60571C1.36911 7.26196 1.67099 7.61258 1.93161 7.72133C1.99536 7.74946 2.06099 7.76258 2.12099 7.76258C2.14536 7.76258 2.16974 7.75696 2.19224 7.75133V15.1426C2.19599 15.1763 2.25411 15.9995 2.79599 16.4457C3.01724 16.6295 3.28724 16.7213 3.59849 16.7213C3.66974 16.7213 3.74286 16.7157 3.81786 16.7063C4.68224 16.5976 5.07599 16.3895 5.67036 16.0726C6.07161 15.8607 6.57036 15.5963 7.38036 15.2682C8.28224 14.9007 8.70036 14.5838 9.10349 14.2782C9.60411 13.8995 10.0747 13.5413 11.4697 13.1438C12.3847 12.8813 13.1535 12.3001 13.7685 11.6495L13.3447 14.8613C13.2791 14.987 12.8122 15.8813 12.6041 16.277C12.3922 16.6782 12.7785 17.0195 13.011 17.1451C13.026 17.1526 13.041 17.1563 13.056 17.1563H16.3879C16.566 17.1563 16.7104 17.0101 16.7104 16.832C16.7104 16.6876 16.6185 16.5638 16.4797 16.5226ZM2.52974 6.70321C2.65724 6.79883 2.78474 6.87196 2.88411 6.88133C2.91974 7.17758 3.04724 7.77383 3.49724 8.17321C3.75224 8.40008 3.87599 8.63821 3.85349 8.86321C3.83099 9.08633 3.66599 9.29071 3.37911 9.45571C3.34349 9.47633 3.32474 9.51946 3.33411 9.55883C3.33974 9.58321 3.89099 11.9513 3.91349 12.407C3.91911 12.5176 3.91911 12.6901 3.91536 12.8888C3.68661 12.9113 3.45599 12.9507 3.23474 13.0107C2.93849 13.0913 2.65161 13.2076 2.37974 13.352V7.65008C2.55786 7.45696 2.57286 7.01633 2.52974 6.70321ZM3.64724 2.92696C4.20599 3.28696 5.08911 4.02196 5.60474 4.62008C5.57286 4.71383 5.51099 4.93133 5.52224 5.20883C4.03161 6.08633 2.82599 5.48821 2.55786 5.33071C2.56911 4.79071 2.63286 4.34071 2.72099 3.97321C3.27224 3.58508 3.54599 3.12571 3.64724 2.92696ZM2.80536 3.67133C2.94599 3.22883 3.12224 2.92508 3.27411 2.72633C3.33036 2.74508 3.40161 2.78258 3.48599 2.82946C3.41099 2.97758 3.20474 3.33571 2.80536 3.67133ZM5.78286 6.02821C5.92724 6.25508 6.14286 6.48571 6.46349 6.70321C6.86286 6.97321 7.80224 7.68946 8.16224 8.62883V8.63258C8.16411 8.64946 8.17161 8.66633 8.18099 8.67946C8.27849 8.94758 8.32536 9.23258 8.29911 9.53071C8.28786 9.55321 8.28411 9.57946 8.29349 9.60571C8.26911 9.79133 8.21474 9.98446 8.12661 10.1795C7.39911 10.3426 7.08224 10.8282 6.78599 11.6082L6.71474 11.7995C6.46349 12.4707 6.37911 12.6976 5.74724 13.1326C5.35536 13.4026 4.63349 13.8695 4.06536 14.237C4.07474 13.9482 4.09536 13.4251 4.10286 12.9901C4.10286 12.9807 4.10661 12.9732 4.10474 12.9657C4.10474 12.962 4.10286 12.9582 4.10286 12.9563C4.10661 12.7257 4.10661 12.5251 4.10099 12.3976C4.08036 11.9645 3.62474 9.98071 3.53286 9.58321C3.83849 9.39196 4.01286 9.15008 4.03911 8.88196C4.06911 8.59508 3.92474 8.30071 3.62099 8.03258C3.07911 7.55258 3.05661 6.70696 3.05661 6.69946V6.69571C3.05286 6.62446 3.04349 6.55508 3.03224 6.48571C3.22536 6.59446 3.50661 6.69571 3.88349 6.69571C4.35974 6.69571 4.98786 6.53258 5.78286 6.02821ZM11.2485 8.83321C9.90786 8.49383 8.87661 9.09196 8.48286 9.37696C8.48286 9.15008 8.44349 8.92508 8.37411 8.70758C8.77724 8.66258 10.1647 8.46008 11.1454 7.73821C11.1979 8.01008 11.2354 8.36071 11.2485 8.83321ZM2.28786 6.49508C2.37224 6.63196 2.42474 7.38758 2.22786 7.54133C2.17349 7.58446 2.09286 7.58633 2.00474 7.54883C1.80224 7.46446 1.54724 7.16071 1.48724 6.58508C1.42161 5.96071 1.70849 5.61758 1.74786 5.58946C1.85474 5.54633 1.86036 5.40196 1.85474 4.51696C1.84724 3.75758 1.83974 2.71696 1.99161 2.20883C2.04036 2.04758 2.07599 1.90133 2.10786 1.77008C2.22974 1.26946 2.28786 1.02946 2.74349 1.02946C2.83911 1.02946 2.94974 1.03883 3.08286 1.05946C3.78224 1.16821 5.50161 2.64946 6.70161 3.75196C6.71099 3.77446 6.72974 3.79321 6.75411 3.80071C7.16286 4.17758 7.50599 4.50758 7.72161 4.71571C7.89599 4.88446 7.97286 5.12446 7.92786 5.36071C7.84911 5.76196 7.66536 5.99446 7.38036 6.04883C7.17224 6.09008 6.94536 6.01508 6.77661 5.85008C6.59849 5.67571 6.33036 5.37383 6.06974 4.92946C5.69286 4.29383 4.40474 3.17071 3.66411 2.71883C3.65661 2.71321 3.64911 2.70758 3.63974 2.70383H3.63599C3.54786 2.65133 3.46724 2.60633 3.39786 2.57633C3.51036 2.45446 3.58911 2.40571 3.59099 2.40383C3.63599 2.37758 3.64911 2.31946 3.62286 2.27446C3.59661 2.23133 3.53849 2.21633 3.49536 2.24258C3.45036 2.26883 2.40599 2.92321 2.36849 5.38508C2.36849 5.38696 2.37036 5.38883 2.37036 5.39071C2.37224 5.40383 2.37599 5.41696 2.38161 5.42821C2.38349 5.43196 2.38349 5.43571 2.38536 5.43946C2.38911 5.44696 2.82036 6.06008 2.86536 6.69008C2.77911 6.65821 2.59349 6.52696 2.43036 6.37696C2.39474 6.34508 2.34411 6.34321 2.30661 6.37321C2.27099 6.40321 2.26349 6.45571 2.28786 6.49508ZM16.3879 16.9688H13.0804C12.9904 16.9145 12.6116 16.6651 12.771 16.3632C12.9941 15.9376 13.5191 14.9326 13.5191 14.9326C13.5247 14.9232 13.5285 14.912 13.5285 14.9026L13.9897 11.4057C14.076 11.3063 14.1622 11.2051 14.241 11.102C14.3779 11.1563 14.7379 11.2763 15.2441 11.2763C15.4372 11.2763 15.6529 11.2576 15.8835 11.2107C15.771 11.4713 15.6472 11.7451 15.5235 12.0282C14.7435 13.7795 14.1997 15.0526 14.286 15.4688C14.4004 16.0257 15.6772 16.4795 16.4272 16.7026C16.4835 16.7195 16.5229 16.772 16.5229 16.832C16.5229 16.907 16.4629 16.9688 16.3879 16.9688Z" fill="#0D1101"/>
</svg>
