<svg width="24" height="24" viewBox="0 0 24 24" fill="none" xmlns="http://www.w3.org/2000/svg">
<path d="M6.18695 12.6045C6.1925 12.0359 6.32579 11.4759 6.57695 10.9658C5.9549 11.1475 5.39961 11.5073 4.97951 12.0007C4.61496 11.064 4.37662 10.0829 4.27076 9.08332L4.65321 9.22579C4.81846 9.28515 4.99551 9.30414 5.16959 9.28118C5.34367 9.25822 5.50974 9.19398 5.65395 9.0938C5.79817 8.99363 5.91634 8.86043 5.99862 8.70531C6.0809 8.55019 6.1249 8.37765 6.12696 8.20208V7.13336C6.12696 6.70586 5.80446 6.2784 5.08071 6.2784H3.53202C2.61954 6.26885 2.26527 7.1409 1.92705 7.90209C1.53587 8.86895 1.41029 9.92281 1.5633 10.9545C1.68365 12.3532 1.97844 13.7314 2.4408 15.0569C2.5338 15.3306 2.7288 15.5578 2.98517 15.6912C3.24155 15.8246 3.53953 15.854 3.81701 15.7732C5.66741 15.1566 6.95673 16.7599 8.69564 16.6544C7.24346 15.5864 6.10475 13.9792 6.18695 12.6045Z" fill="#0D1101"/>
<path d="M22.0756 7.90212C21.7281 7.14318 21.3799 6.26874 20.4669 6.2784H18.9182C18.1944 6.2784 17.8719 6.70587 17.8719 7.13337L17.8719 8.20206C17.874 8.37763 17.918 8.55017 18.0003 8.70529C18.0825 8.86041 18.2007 8.99361 18.3449 9.09379C18.4891 9.19396 18.6552 9.25821 18.8293 9.28118C19.0033 9.30414 19.1804 9.28516 19.3456 9.22581L19.7281 9.08331C19.6241 10.0832 19.3857 11.0645 19.0194 12.0007C18.5986 11.5063 18.0418 11.1464 17.4182 10.9658C17.5587 11.2435 17.6621 11.5385 17.7256 11.8432C18.1611 13.6369 17.0248 15.3518 15.3032 16.6543C16.9268 16.767 17.9667 15.4292 19.6869 15.6681C19.8515 15.6907 20.0144 15.7246 20.1744 15.7694C20.4519 15.8535 20.7512 15.8266 21.0093 15.6944C21.2674 15.5622 21.4641 15.335 21.5581 15.0606C22.02 13.7337 22.3148 12.3543 22.4356 10.9545C22.5886 9.92311 22.4644 8.86958 22.0756 7.90212Z" fill="#0D1101"/>
<path d="M17.0625 12.6052C17.0977 10.1153 13.9596 8.66982 12.0642 10.2698L12.0001 10.3204L11.936 10.2698C10.0396 8.66913 6.90369 10.1157 6.93779 12.6052C6.75629 14.8459 10.6393 17.2817 12.0001 17.7216C13.3571 17.2854 17.2466 14.8421 17.0625 12.6052Z" fill="#0D1101"/>
</svg>
