<svg width="24" height="24" viewBox="0 0 24 24" fill="none" xmlns="http://www.w3.org/2000/svg">
<path d="M21.4006 14.58C19.6794 16.2262 17.2644 17.1525 14.6394 16.8675C10.7394 16.4437 7.59689 13.2862 7.19939 9.38245C6.92564 6.71995 7.89689 4.27495 9.59939 2.5612C9.91814 2.24245 9.61439 1.70245 9.18314 1.8262C4.45064 3.15745 1.06814 7.7062 1.55189 12.9637C1.70564 14.6475 2.26814 16.215 3.13064 17.5762C3.84689 16.56 5.02439 15.8962 6.33689 15.8962C8.14439 15.8962 9.70439 17.1525 10.1394 18.855C11.1556 19.0575 11.9206 19.9575 11.9206 21.03C11.9206 21.585 11.7144 22.0912 11.3769 22.4812C11.4106 22.4812 11.4444 22.4887 11.4819 22.4887C16.4881 22.7512 20.7781 19.515 22.1356 15.0075C22.2669 14.5762 21.7306 14.265 21.4081 14.5762L21.4006 14.58Z" fill="#0D1101"/>
<path d="M9.70189 19.5601H9.49939C9.36814 17.9288 8.00314 16.6426 6.33814 16.6426C4.67314 16.6426 3.30814 17.9251 3.17689 19.5601H2.97439C2.16439 19.5601 1.50439 20.2163 1.50439 21.0301C1.50439 21.8438 2.16064 22.5001 2.97439 22.5001H9.70189C10.5119 22.5001 11.1719 21.8438 11.1719 21.0301C11.1719 20.2163 10.5156 19.5601 9.70189 19.5601Z" fill="#0D1101"/>
<path d="M15.6194 7.62385L16.5306 7.21885C16.7181 7.13635 16.7106 6.86635 16.5194 6.7951L15.7694 6.5176C15.0081 6.23635 14.3931 5.6551 14.0631 4.9126L13.7369 4.17385C13.6544 3.98635 13.3844 3.99385 13.3131 4.1851L13.0881 4.7926C12.7844 5.61385 12.1356 6.2626 11.3144 6.56635L10.7219 6.7876C10.5269 6.85885 10.5231 7.1326 10.7144 7.21135L11.3706 7.48885C12.1356 7.81135 12.7356 8.4376 13.0244 9.21385L13.3094 9.9826C13.3806 10.1776 13.6544 10.1813 13.7331 9.9901L14.0669 9.2026C14.3631 8.49385 14.9219 7.9276 15.6231 7.61635L15.6194 7.62385Z" fill="#0D1101"/>
<path d="M18.9896 12.33L19.5746 12.0712C19.6871 12.0225 19.6834 11.8612 19.5671 11.82L19.0834 11.64C18.6071 11.4637 18.2209 11.1 18.0146 10.635L17.8046 10.1587C17.7559 10.0462 17.5946 10.05 17.5534 10.1662L17.4071 10.56C17.2159 11.0737 16.8109 11.4787 16.2971 11.67L15.9109 11.8125C15.7946 11.8575 15.7909 12.0187 15.9071 12.0675L16.3346 12.2475C16.8146 12.45 17.1896 12.84 17.3696 13.3275L17.5534 13.8225C17.5984 13.9387 17.7596 13.9425 17.8084 13.8262L18.0221 13.3162C18.2096 12.8737 18.5584 12.5175 18.9971 12.3262L18.9896 12.33Z" fill="#0D1101"/>
</svg>
