<svg width="24" height="24" viewBox="0 0 24 24" fill="none" xmlns="http://www.w3.org/2000/svg">
<path d="M21.1013 15.4013C21.1013 14.5725 20.6026 13.8675 19.8863 13.5563C19.9351 13.3838 19.9688 13.2 19.9688 13.0125C19.9688 11.9138 19.0801 11.025 17.9813 11.025C17.8538 11.025 17.7301 11.04 17.6063 11.0625C17.6851 10.8713 17.7301 10.6725 17.7301 10.4663C17.7301 9.34126 16.4888 8.43001 14.9626 8.43001C14.4338 8.43001 13.9463 8.53876 13.5301 8.72251C13.2713 8.24626 12.7726 7.91626 12.1951 7.91626C11.4788 7.91626 10.8788 8.41501 10.7138 9.08626C10.2638 8.67751 9.66759 8.43001 9.01134 8.43001C7.74759 8.43001 6.69759 9.35251 6.50259 10.5675C6.23634 10.4175 5.93259 10.3275 5.61009 10.3275C4.58259 10.3275 3.75384 11.16 3.75384 12.1838C3.75384 12.5325 3.85134 12.8513 4.01634 13.125C3.36009 13.3875 2.90259 13.9763 2.90259 14.6625C2.90259 15.1763 3.16509 15.6375 3.57384 15.945C3.51384 16.1438 3.47634 16.3538 3.47634 16.5713C3.47634 17.9625 4.81509 19.0838 6.46884 19.0838C7.12884 19.0838 7.73634 18.9038 8.22759 18.6C8.73009 19.2975 9.54759 19.7513 10.4776 19.7513C11.2576 19.7513 11.9588 19.4288 12.4613 18.9113C12.6938 18.6675 13.0726 18.6338 13.3426 18.8363C14.0251 19.35 15.0151 20.295 15.6788 21.7913C15.6788 21.7913 17.4301 21.4913 17.4301 21.4388C17.4301 21.3938 17.4713 20.415 17.2088 19.6913C17.3738 19.7325 17.5501 19.7513 17.7301 19.7513C18.7651 19.7513 19.6051 19.0838 19.6051 18.2588C19.6051 17.9288 19.4701 17.6288 19.2451 17.385C20.2801 17.3063 21.1013 16.4513 21.1013 15.3975V15.4013ZM5.90259 11.1263C6.10884 11.1263 6.27759 11.295 6.27759 11.5013C6.27759 11.7075 6.10884 11.8763 5.90259 11.8763C5.65134 11.8763 5.44509 12.0713 5.44509 12.315C5.44509 12.39 5.46759 12.465 5.50884 12.5325C5.61759 12.7088 5.56134 12.9413 5.38509 13.05C5.32509 13.0875 5.25759 13.1063 5.19009 13.1063C5.06259 13.1063 4.93884 13.0425 4.87134 12.9263C4.75884 12.7425 4.69884 12.5288 4.69884 12.3188C4.69884 11.6625 5.23884 11.13 5.90634 11.13L5.90259 11.1263ZM6.84384 18.1013C6.72759 18.12 6.61134 18.1275 6.49884 18.1275C6.03759 18.1275 5.59134 17.9888 5.21634 17.7225C4.74009 17.3888 4.43259 16.8938 4.34634 16.3275C4.31634 16.1213 4.45509 15.93 4.66134 15.9C4.86384 15.8738 5.05884 16.0088 5.08884 16.215C5.14134 16.575 5.34009 16.8938 5.64759 17.1075C5.95884 17.325 6.34509 17.415 6.73134 17.3588C6.93384 17.3325 7.12884 17.4675 7.15884 17.6738C7.18884 17.88 7.05009 18.0675 6.84384 18.1013ZM16.3876 11.175C16.1813 11.175 16.0126 11.0063 16.0126 10.8C16.0126 10.365 15.5063 10.0013 14.9063 10.0013C14.6926 10.0013 14.4826 10.0463 14.3063 10.1325C14.1226 10.2225 13.8976 10.1438 13.8038 9.96001C13.7138 9.77251 13.7926 9.55126 13.9763 9.45751C14.2576 9.32251 14.5763 9.25126 14.9063 9.25126C15.9301 9.25126 16.7626 9.94501 16.7626 10.8C16.7626 11.0063 16.5938 11.175 16.3876 11.175ZM18.4951 16.6463C18.4951 16.6463 18.4801 16.6463 18.4688 16.6463C18.2738 16.6463 18.1088 16.4925 18.0938 16.2938C18.0788 16.0875 18.2363 15.9075 18.4426 15.8963C18.8551 15.87 19.1738 15.6075 19.1738 15.2963C19.1738 15.0638 18.9938 14.85 18.7126 14.7488C18.5176 14.6775 18.4163 14.4638 18.4876 14.2688C18.5588 14.0738 18.7726 13.9763 18.9676 14.0438C19.5488 14.2538 19.9238 14.7488 19.9238 15.2963C19.9238 16.0013 19.2938 16.59 18.4913 16.6425L18.4951 16.6463Z" fill="#0D1101"/>
<path d="M12.1164 6.40493C12.0789 6.40493 12.0376 6.39744 11.9964 6.38619C11.8014 6.32244 11.6926 6.10869 11.7601 5.91369L12.1876 4.62744L11.3289 4.82994C11.1976 4.85994 11.0589 4.81869 10.9651 4.71743C10.8751 4.61618 10.8451 4.47369 10.8864 4.34619L11.6401 2.08494C11.7039 1.88994 11.9176 1.78118 12.1126 1.84868C12.3076 1.91243 12.4164 2.12619 12.3489 2.32119L11.8089 3.94494L12.6676 3.74243C12.7989 3.71243 12.9376 3.75368 13.0314 3.85493C13.1214 3.95618 13.1514 4.09869 13.1101 4.22619L12.4689 6.14618C12.4164 6.30368 12.2701 6.40119 12.1126 6.40119L12.1164 6.40493Z" fill="#0D1101"/>
<path d="M18.12 6.44627C18.0225 6.44627 17.9288 6.40877 17.8538 6.33752C17.7075 6.19127 17.7075 5.95502 17.8538 5.80877L18.39 5.27252L17.9775 5.17502C17.8463 5.14502 17.7413 5.04377 17.7038 4.91252C17.6663 4.78127 17.7038 4.64252 17.8013 4.54502L18.99 3.35627C19.1363 3.21002 19.3725 3.21002 19.5188 3.35627C19.665 3.50252 19.665 3.73877 19.5188 3.88502L18.8063 4.59752L19.2188 4.69502C19.35 4.72502 19.455 4.82627 19.4925 4.95752C19.53 5.08877 19.4925 5.22752 19.395 5.32502L18.3863 6.33377C18.3113 6.40877 18.2175 6.44252 18.12 6.44252V6.44627Z" fill="#0D1101"/>
<path d="M20.3812 9.7349C20.2312 9.7349 20.0887 9.6449 20.0324 9.4949C19.9574 9.2999 20.0549 9.08615 20.2462 9.01115L21.5024 8.5274L20.8049 7.9949C20.6962 7.9124 20.6399 7.7774 20.6624 7.6424C20.6812 7.5074 20.7712 7.3949 20.8987 7.34615L23.1149 6.49115C23.3099 6.41615 23.5237 6.51365 23.5987 6.7049C23.6737 6.8999 23.5762 7.11365 23.3849 7.18865L21.7949 7.80365L22.4924 8.33615C22.6012 8.41865 22.6574 8.55365 22.6349 8.68865C22.6162 8.82365 22.5262 8.93615 22.3987 8.9849L20.5162 9.7124C20.4712 9.73115 20.4262 9.73865 20.3812 9.73865V9.7349Z" fill="#0D1101"/>
<path d="M5.88002 6.44618C5.78252 6.44618 5.68877 6.40868 5.61377 6.33743L4.60502 5.32868C4.50752 5.23118 4.47377 5.09243 4.50752 4.96118C4.54502 4.82993 4.65002 4.72868 4.78127 4.69868L5.19377 4.60118L4.48127 3.88868C4.33502 3.74243 4.33502 3.50618 4.48127 3.35993C4.62752 3.21368 4.86377 3.21368 5.01002 3.35993L6.19877 4.54868C6.29627 4.64618 6.33002 4.78493 6.29627 4.91618C6.25877 5.04743 6.15377 5.14868 6.02252 5.17868L5.61002 5.27618L6.14627 5.81243C6.29252 5.95868 6.29252 6.19493 6.14627 6.34118C6.07127 6.41618 5.97752 6.44993 5.88002 6.44993V6.44618Z" fill="#0D1101"/>
<path d="M3.61878 9.73496C3.57378 9.73496 3.52878 9.72746 3.48378 9.70871L1.60128 8.98122C1.47378 8.93247 1.38378 8.81997 1.36503 8.68497C1.34628 8.54997 1.40253 8.41496 1.50753 8.33246L2.20503 7.79996L0.615033 7.18497C0.420033 7.10997 0.326283 6.89247 0.401283 6.70122C0.476283 6.50622 0.693783 6.41246 0.885033 6.48746L3.10128 7.34247C3.22878 7.39122 3.31878 7.50372 3.33753 7.63872C3.35628 7.77372 3.30003 7.90872 3.19503 7.99121L2.49753 8.52372L3.75378 9.00747C3.94878 9.08247 4.04253 9.29996 3.96753 9.49121C3.91128 9.64122 3.76878 9.73122 3.61878 9.73122V9.73496Z" fill="#0D1101"/>
</svg>
